<?xml version="1.0" standalone="no"?>
<!DOCTYPE svg PUBLIC "-//W3C//DTD SVG 20010904//EN"
 "http://www.w3.org/TR/2001/REC-SVG-20010904/DTD/svg10.dtd">
<svg version="1.0" xmlns="http://www.w3.org/2000/svg"
 width="100.000000pt" height="100.000000pt" viewBox="0 0 100.000000 100.000000"
 preserveAspectRatio="xMidYMid meet">

<g transform="translate(0.000000,100.000000) scale(0.100000,-0.100000)"
fill="#000000" stroke="none">
<path d="M80 988 c0 -7 14 -133 30 -280 16 -147 27 -275 24 -285 -3 -11 3 -7
16 10 12 15 26 27 32 27 5 0 -2 -14 -16 -31 -18 -21 -25 -38 -20 -51 3 -10 1
-25 -5 -31 -6 -8 -6 -18 -1 -27 6 -8 10 -36 10 -61 0 -26 6 -61 14 -79 l13
-32 35 31 c41 36 46 37 63 14 11 -15 15 -15 29 -4 9 7 13 17 10 22 -3 5 -2 14
2 20 3 6 27 -26 54 -74 76 -135 95 -157 142 -157 36 0 38 1 23 16 -8 9 -23 30
-32 47 l-16 31 24 -17 c70 -51 88 -46 91 21 1 28 6 42 17 45 11 3 9 5 -5 6
-12 0 -28 8 -35 17 -9 11 -24 15 -50 11 -39 -5 -70 5 -50 17 6 4 11 4 11 0 0
-4 9 1 20 11 11 10 33 18 50 17 38 -1 63 35 28 40 -12 2 -23 8 -25 13 -2 6 21
10 57 9 52 -1 60 1 60 17 0 12 -5 16 -15 13 -8 -4 -21 -1 -29 5 -7 6 -15 8
-18 6 -3 -3 -23 -8 -44 -11 -22 -2 -50 -6 -64 -9 -14 -2 -32 -4 -41 -4 -8 -1
-20 -13 -26 -28 -10 -27 -10 -27 -8 10 2 30 -1 37 -16 37 -28 0 -23 27 10 61
32 31 57 39 47 13 -3 -8 -2 -12 4 -9 5 3 13 -3 19 -13 14 -26 82 -45 115 -32
26 9 31 24 20 54 -8 20 -18 20 -38 0 -15 -14 -16 -14 -16 0 0 19 -4 19 -48 7
-38 -11 -38 -8 -14 57 12 31 16 56 11 70 -5 13 -4 24 3 28 7 4 14 2 16 -4 2
-7 10 -19 19 -27 8 -8 11 -15 8 -15 -4 0 5 -14 19 -31 15 -17 34 -45 42 -61 9
-16 18 -28 21 -25 2 3 -1 15 -7 27 -11 21 -11 22 14 16 25 -6 26 -5 16 14 -7
13 -21 20 -40 20 -19 0 -33 7 -40 21 -16 28 -6 35 24 15 14 -8 27 -12 30 -7 3
4 17 6 31 3 38 -7 32 22 -9 42 -43 20 -75 21 -82 1 -7 -16 -24 -21 -24 -6 0
16 67 41 107 40 21 0 32 -3 26 -6 -19 -7 -16 -21 9 -34 18 -10 24 -8 35 7 12
16 15 17 24 4 8 -12 9 -10 4 8 -4 13 -2 28 3 35 19 24 30 85 22 128 -10 51 -5
60 14 33 13 -17 14 -17 9 9 -3 15 -10 27 -15 27 -5 0 -7 4 -4 9 3 5 -4 11 -15
14 -15 4 -20 11 -17 25 4 14 1 19 -11 18 -9 -1 -15 5 -13 14 11 46 11 60 2 60
-6 0 -10 -10 -8 -22 2 -17 -3 -24 -18 -26 -22 -3 -29 23 -12 44 10 14 0 46
-13 38 -5 -3 -9 4 -9 15 0 23 -15 28 -23 9 -4 -10 -6 -10 -6 0 -1 18 -581 18
-581 0z m443 -358 c4 -17 2 -18 -14 -9 -20 10 -24 21 -13 32 10 10 21 0 27
-23z m-58 -70 c10 -16 -65 -44 -79 -30 -8 8 -6 15 8 26 23 16 62 19 71 4z m29
-101 c-9 -11 -22 -18 -28 -17 -6 1 -33 -4 -59 -11 -42 -12 -50 -12 -58 0 -27
42 5 68 53 43 20 -10 28 -11 22 -3 -5 9 -2 10 10 6 11 -4 25 4 44 24 l27 31 3
-27 c2 -15 -4 -35 -14 -46z m-296 -110 c-3 -9 -12 0 -22 21 l-18 35 22 -21
c12 -12 20 -28 18 -35z m92 -19 c0 -5 -2 -10 -4 -10 -3 0 -8 5 -11 10 -3 6 -1
10 4 10 6 0 11 -4 11 -10z m234 -74 c-7 -18 -32 -28 -39 -16 -3 5 3 13 12 19
25 14 33 13 27 -3z"/>
<path d="M954 864 c27 -533 34 -680 30 -683 -2 -2 -4 10 -4 28 0 18 -4 30 -10
26 -5 -3 -19 -1 -31 5 -28 15 -36 5 -13 -17 16 -17 16 -18 1 -21 -10 -2 -14
-8 -11 -14 4 -7 2 -8 -4 -4 -7 4 -12 14 -12 22 0 8 -4 14 -10 14 -5 0 -10 -5
-10 -11 0 -5 -4 -7 -10 -4 -6 3 -10 -5 -10 -19 0 -23 3 -24 72 -28 l71 -3 -8
330 c-9 416 -15 507 -34 513 -12 4 -13 -17 -7 -134z"/>
<path d="M750 479 c0 -31 4 -48 10 -44 6 3 10 26 10 51 0 24 -4 44 -10 44 -5
0 -10 -23 -10 -51z"/>
<path d="M798 463 c7 -3 16 -2 19 1 4 3 -2 6 -13 5 -11 0 -14 -3 -6 -6z"/>
<path d="M762 378 c-6 -13 -13 -39 -15 -59 l-5 -36 45 1 c36 1 49 -4 64 -23
10 -13 19 -18 19 -12 0 7 5 9 12 5 8 -5 9 -2 5 10 -4 10 -2 16 6 15 27 -3 37
2 37 18 0 15 -2 15 -14 -2 -13 -18 -14 -18 -20 3 -7 20 -9 20 -22 7 -9 -8 -13
-19 -10 -24 3 -5 -5 -4 -19 2 -13 7 -20 14 -15 15 6 2 8 8 4 13 -3 5 2 9 10 9
18 0 21 16 6 25 -5 3 -10 1 -10 -5 0 -6 -5 -8 -10 -5 -6 4 -8 11 -5 16 4 5 1
9 -5 9 -7 0 -10 -12 -8 -27 2 -16 -2 -28 -11 -31 -9 -3 -11 0 -6 8 6 10 4 12
-8 7 -10 -3 -17 -2 -17 3 0 6 4 10 8 10 4 0 8 9 8 20 0 11 -4 20 -8 20 -4 0
-5 7 -2 15 9 23 -1 18 -14 -7z"/>
<path d="M70 379 c0 -5 5 -7 10 -4 6 3 10 8 10 11 0 2 -4 4 -10 4 -5 0 -10 -5
-10 -11z"/>
<path d="M830 380 c0 -5 5 -10 10 -10 6 0 10 5 10 10 0 6 -4 10 -10 10 -5 0
-10 -4 -10 -10z"/>
<path d="M880 340 c0 -5 5 -10 11 -10 5 0 7 5 4 10 -3 6 -8 10 -11 10 -2 0 -4
-4 -4 -10z"/>
<path d="M0 159 l0 -163 55 54 c31 30 53 61 50 68 -2 7 0 10 5 7 5 -3 18 -2
27 4 18 10 14 12 -58 25 -9 2 -21 -5 -28 -15 -6 -11 -18 -19 -26 -19 -10 0 -6
8 10 25 39 38 33 90 -16 154 -19 23 -19 21 -19 -140z"/>
<path d="M720 237 c0 -8 -9 -22 -20 -32 -28 -25 -26 -29 23 -41 23 -6 51 -15
62 -19 16 -7 18 -6 9 6 -13 16 -8 67 8 86 8 10 1 13 -36 13 -32 0 -46 -4 -46
-13z"/>
<path d="M324 149 c-3 -6 -1 -16 6 -22 10 -9 11 -9 5 2 -5 9 -4 12 3 7 6 -4 9
-12 6 -20 -6 -16 73 -116 92 -116 22 0 17 11 -26 65 -22 28 -45 60 -51 73 -13
24 -24 28 -35 11z"/>
<path d="M656 148 c-10 -39 -27 -141 -23 -145 3 -2 30 -3 61 -1 l57 3 -25 47
c-13 25 -22 48 -19 51 6 7 -27 57 -38 57 -6 0 -11 -6 -13 -12z"/>
<path d="M270 75 c0 -2 10 -10 23 -16 20 -11 21 -11 8 4 -13 16 -31 23 -31 12z"/>
<path d="M766 15 c4 -8 10 -15 15 -15 4 0 6 7 3 15 -4 8 -10 15 -15 15 -4 0
-6 -7 -3 -15z"/>
</g>
</svg>
